<?xml version="1.0" encoding="UTF-8"?>
<svg id="Layer_2" data-name="Layer 2" xmlns="http://www.w3.org/2000/svg" viewBox="0 0 384.09 285.41">
  <g id="Layer_1-2" data-name="Layer 1">
    <g>
      <path d="M60.29,251.04v30.23H0V3.96h30.23v247.08h30.05Z" fill="#ffffff"/>
      <path d="M246.59,113.37V37.07c0-2.76-.96-5.1-2.88-7.02-2.04-2.04-4.44-3.06-7.2-3.06s-5.1,1.02-7.02,3.06c-2.04,1.92-3.06,4.26-3.06,7.02v211.27c0,2.76,1.02,5.1,3.06,7.02,1.92,1.92,4.26,2.88,7.02,2.88s5.16-.96,7.2-2.88c1.92-1.92,2.88-4.26,2.88-7.02v-90.7h-9.54v-30.23h40.31v117.33c0,11.16-4.02,20.75-12.06,28.79-7.92,7.92-17.52,11.88-28.79,11.88s-20.76-3.96-28.79-11.88c-7.92-8.04-11.88-17.64-11.88-28.79V40.67c0-11.16,3.96-20.75,11.88-28.79,8.04-7.92,17.64-11.88,28.79-11.88s20.87,3.96,28.79,11.88c8.04,8.04,12.06,17.63,12.06,28.79v72.7h-30.77Z" fill="#ffffff"/>
      <path d="M343.24,0c11.28,0,20.87,3.96,28.79,11.88,8.04,8.04,12.06,17.63,12.06,28.79v204.07c0,11.16-4.02,20.75-12.06,28.79-7.92,7.92-17.52,11.88-28.79,11.88s-20.76-3.96-28.79-11.88c-7.92-8.04-11.88-17.64-11.88-28.79V40.67c0-11.16,3.96-20.75,11.88-28.79,8.04-7.92,17.64-11.88,28.79-11.88ZM333.16,248.34c0,2.76,1.02,5.1,3.06,7.02,1.92,1.92,4.26,2.88,7.02,2.88s5.16-.96,7.2-2.88c1.92-1.92,2.88-4.26,2.88-7.02V37.07c0-2.76-.96-5.1-2.88-7.02-2.04-2.04-4.44-3.06-7.2-3.06s-5.1,1.02-7.02,3.06c-2.04,1.92-3.06,4.26-3.06,7.02v211.27Z" fill="#ffffff"/>
      <polygon points="145.79 3.96 115.73 3.96 85.5 281.28 115.73 281.28 119.15 253.92 122.93 223.87 130.67 123.95 138.59 223.87 142.37 253.92 145.79 281.28 176.02 281.28 145.79 3.96" fill="#ffffff"/>
    </g>
  </g>
</svg>